<svg width="915" height="536" viewBox="0 0 915 536" fill="none" xmlns="http://www.w3.org/2000/svg">
<path d="M378.05 17.298V26.118H374.45V0.917969H382.52C387.2 0.917969 391.3 1.99794 391.3 8.76794C391.3 15.3179 386.87 17.298 383.52 17.298H378.05ZM378.05 3.97791V14.2379H382.88C386.37 14.2379 387.74 12.298 387.74 8.90796C387.74 5.30796 386.3 3.97791 381.87 3.97791H378.05Z" fill="#6E6F71"/>
<path d="M409.05 26.118L406.64 19.308H396.99L394.58 26.118H390.98L399.98 0.917969H403.58L412.58 26.118H409.05ZM401.81 5.70801L398.07 16.2179H405.56L401.81 5.70801Z" fill="#6E6F71"/>
<path d="M413.91 13.5179C413.91 5.51794 419.24 0.417969 426.51 0.417969C428.919 0.422815 431.302 0.923153 433.51 1.88794L433.15 5.05798C431.052 4.15445 428.811 3.62962 426.53 3.50793C420.73 3.50793 417.67 7.93793 417.67 13.5079C417.67 19.0779 420.73 23.5079 426.6 23.5079C428.856 23.3928 431.074 22.8781 433.15 21.9879L433.51 25.1578C431.314 26.1008 428.95 26.5908 426.56 26.598C419.24 26.618 413.91 21.5079 413.91 13.5179Z" fill="#6E6F71"/>
<path d="M437.56 26.118V0.917969H440.98V26.118H437.56ZM451.71 26.118L442.38 12.778L451.71 0.937988H455.31L445.98 12.778L455.31 26.1381L451.71 26.118Z" fill="#6E6F71"/>
<path d="M473.78 26.118L471.36 19.308H461.72L459.31 26.118H455.71L464.71 0.917969H468.31L477.31 26.118H473.78ZM466.54 5.70801L462.8 16.2179H470.28L466.54 5.70801Z" fill="#6E6F71"/>
<path d="M478.64 13.4779C478.64 5.47791 483.93 0.417969 491.27 0.417969C493.834 0.436751 496.372 0.92474 498.76 1.85791L498.44 4.85791C496.17 4.05053 493.788 3.60186 491.38 3.52795C485.23 3.52795 482.38 7.95795 482.38 13.528C482.38 19.288 485.38 23.528 491.96 23.528C493.393 23.5435 494.817 23.3101 496.17 22.838V16.578H492.17V13.4779H499.55V24.7079C496.844 25.9349 493.911 26.5855 490.94 26.618C484 26.618 478.64 21.5079 478.64 13.4779Z" fill="#6E6F71"/>
<path d="M504.31 26.118V0.917969H519.68V4.01794H507.68V11.3979H517.18V14.4879H507.68V23.0179H519.95V26.118H504.31Z" fill="#6E6F71"/>
<path d="M523.18 24.998L523.64 20.998C525.929 22.6378 528.674 23.5191 531.49 23.518C534.59 23.518 537.49 22.4681 537.49 19.6281C537.49 16.7881 534.61 15.708 530.98 14.548C526.8 13.218 522.77 11.998 522.77 7.67801C522.77 4.54801 524.93 0.407988 531.84 0.407988C534.574 0.393177 537.278 0.980374 539.76 2.12796L539.4 5.76797C536.95 4.54797 534.68 3.49795 532.16 3.49795C529.64 3.49795 526.51 4.57804 526.51 7.20804C526.51 9.54804 528.92 10.488 531.95 11.418C536.38 12.788 541.23 14.118 541.23 19.588C541.23 22.258 540.12 26.588 531.41 26.588C528.582 26.6869 525.768 26.1432 523.18 24.998Z" fill="#6E6F71"/>
<path d="M456.98 61.9678V89.1677" stroke="#FAC113" stroke-width="2.09" stroke-miterlimit="10"/>
<path d="M774.34 89.3179H137.33" stroke="#FAC113" stroke-width="1.84" stroke-miterlimit="10"/>
<path d="M894.99 211.128H748.32C737.733 211.128 729.15 219.711 729.15 230.298V516.188C729.15 526.775 737.733 535.358 748.32 535.358H894.99C905.577 535.358 914.16 526.775 914.16 516.188V230.298C914.16 219.711 905.577 211.128 894.99 211.128Z" fill="#FAC113"/>
<path d="M893.07 216.848H750.24C741.768 216.848 734.9 223.716 734.9 232.188V514.298C734.9 522.77 741.768 529.638 750.24 529.638H893.07C901.542 529.638 908.41 522.77 908.41 514.298V232.188C908.41 223.716 901.542 216.848 893.07 216.848Z" fill="white"/>
<path d="M773.74 355.438C773.74 349.438 777.74 345.438 783.19 345.438C785.066 345.419 786.924 345.801 788.64 346.558L788.26 349.898C786.661 349.195 784.936 348.824 783.19 348.808C779.47 348.808 777.58 351.578 777.58 355.408C777.58 359.238 779.47 362.008 783.19 362.008C784.936 361.992 786.661 361.621 788.26 360.918L788.64 364.258C786.924 365.015 785.066 365.397 783.19 365.378C777.71 365.408 773.74 361.468 773.74 355.438Z" fill="#FAC113"/>
<path d="M799.51 365.028L799.46 364.198C798.595 364.861 797.549 365.245 796.46 365.298C792.18 365.298 790.65 362.558 790.65 358.698V351.328H794.05V358.698C794.05 361.248 794.84 362.448 796.76 362.448C797.248 362.466 797.733 362.372 798.179 362.173C798.625 361.973 799.019 361.674 799.33 361.298V351.298H802.73V364.998L799.51 365.028Z" fill="#FAC113"/>
<path d="M805.12 364.288L805.42 361.378C806.669 362.223 808.132 362.698 809.64 362.748C811.29 362.748 811.72 361.928 811.72 361.248C811.72 360.098 810.55 359.708 809.2 359.298C807.29 358.728 805.26 358.098 805.26 355.468C805.26 353.548 806.41 351.108 810.26 351.108C811.755 351.075 813.233 351.419 814.56 352.108L814.26 355.008C813.222 354.091 811.895 353.567 810.51 353.528C809.33 353.528 808.24 353.938 808.24 355.038C808.24 356.348 809.63 356.568 811.36 357.038C813.09 357.508 815.11 358.408 815.11 361.228C815.11 362.908 814.43 365.228 809.74 365.228C808.145 365.317 806.553 364.994 805.12 364.288Z" fill="#FAC113"/>
<path d="M824.35 365.298H821.91C821.426 365.334 820.939 365.267 820.483 365.1C820.027 364.934 819.611 364.672 819.264 364.332C818.917 363.992 818.646 363.583 818.469 363.13C818.293 362.678 818.215 362.193 818.24 361.708V354.128H816.29L816.6 351.328H818.24V348.328L821.64 347.968V351.338H824.64V354.138H821.64V360.328C821.64 362.408 821.8 362.518 823.72 362.518H824.65L824.35 365.298Z" fill="#FAC113"/>
<path d="M826.04 358.208C826.04 354.368 828.59 351.108 832.97 351.108C837.35 351.108 839.9 354.368 839.9 358.208C839.9 362.048 837.35 365.298 832.97 365.298C828.59 365.298 826.04 362.038 826.04 358.208ZM829.52 358.208C829.52 360.748 830.78 362.508 832.97 362.508C835.16 362.508 836.42 360.748 836.42 358.208C836.42 355.668 835.16 353.908 832.97 353.908C830.78 353.908 829.52 355.658 829.52 358.208Z" fill="#FAC113"/>
<path d="M859.54 365.028V357.658C859.54 355.138 858.88 353.908 856.99 353.908C854.74 353.908 854.28 355.168 854.28 356.558V365.028H850.91V357.658C850.91 354.658 850.09 353.908 848.17 353.908C847.692 353.889 847.217 353.981 846.78 354.175C846.343 354.369 845.957 354.661 845.65 355.028V365.028H842.25V351.328H845.05L845.24 352.398C846.225 351.581 847.46 351.125 848.74 351.108C849.557 351.085 850.367 351.263 851.099 351.625C851.831 351.988 852.463 352.524 852.94 353.188C853.462 352.489 854.151 351.932 854.945 351.568C855.738 351.205 856.61 351.047 857.48 351.108C861.18 351.108 862.93 353.818 862.93 357.658V365.028H859.54Z" fill="#FAC113"/>
<path d="M779.1 391.588V397.888H775.59V378.708H781.01C786.33 378.708 789.23 379.528 789.23 384.788C789.23 390.298 785.23 391.588 782.52 391.588H779.1ZM779.1 381.638V388.298H782.1C784.64 388.298 785.71 387.418 785.71 384.818C785.71 382.628 784.94 381.638 782.01 381.638H779.1Z" fill="#FAC113"/>
<path d="M802.48 398.158H801.25C800.641 398.208 800.029 398.086 799.486 397.805C798.943 397.524 798.49 397.095 798.18 396.568C797.624 397.1 796.966 397.515 796.247 397.789C795.527 398.062 794.759 398.187 793.99 398.158C793.449 398.18 792.91 398.088 792.407 397.888C791.904 397.688 791.449 397.384 791.072 396.996C790.695 396.609 790.403 396.145 790.217 395.637C790.03 395.129 789.953 394.588 789.99 394.048C789.99 390.188 795.11 389.228 797.69 389.148C797.61 387.588 796.98 386.898 795.22 386.898C793.908 386.924 792.621 387.267 791.47 387.898L791.17 385.138C792.721 384.354 794.432 383.939 796.17 383.928C799.24 383.928 801.17 385.468 801.17 389.438V393.128C801.17 395.188 801.39 395.328 802.38 395.328H802.82L802.48 398.158ZM797.75 391.448C795.83 391.528 793.58 392.298 793.58 393.908C793.58 395.038 794.13 395.558 795.42 395.558C796.29 395.509 797.115 395.155 797.75 394.558V391.448Z" fill="#FAC113"/>
<path d="M803.85 391.068C803.85 387.228 806.12 383.968 810.51 383.968C811.948 383.862 813.382 384.212 814.61 384.968L814.31 387.868C813.277 387.14 812.044 386.749 810.78 386.748C808.59 386.748 807.33 388.498 807.33 391.048C807.33 393.598 808.59 395.348 810.78 395.348C812.045 395.343 813.278 394.948 814.31 394.218L814.61 397.128C813.379 397.875 811.947 398.224 810.51 398.128C806.12 398.158 803.85 394.898 803.85 391.068Z" fill="#FAC113"/>
<path d="M816.91 397.888V377.338H820.31V389.778L824.66 384.158H828.5L823.5 390.728L828.5 397.858H824.66L820.31 391.768V397.858L816.91 397.888Z" fill="#FAC113"/>
<path d="M841.53 398.158H840.3C839.69 398.21 839.079 398.088 838.535 397.807C837.992 397.525 837.539 397.096 837.23 396.568C836.673 397.099 836.016 397.514 835.296 397.787C834.576 398.06 833.809 398.186 833.04 398.158C832.499 398.18 831.96 398.088 831.457 397.888C830.954 397.688 830.499 397.384 830.122 396.996C829.745 396.609 829.453 396.145 829.267 395.637C829.08 395.129 829.003 394.588 829.04 394.048C829.04 390.188 834.16 389.228 836.73 389.148C836.65 387.588 836.02 386.898 834.27 386.898C832.958 386.924 831.671 387.267 830.52 387.898L830.22 385.138C831.77 384.352 833.482 383.938 835.22 383.928C838.29 383.928 840.22 385.468 840.22 389.438V393.128C840.22 395.188 840.44 395.328 841.42 395.328H841.86L841.53 398.158ZM836.79 391.448C834.88 391.528 832.63 392.298 832.63 393.908C832.63 395.038 833.18 395.558 834.46 395.558C835.331 395.513 836.157 395.158 836.79 394.558V391.448Z" fill="#FAC113"/>
<path d="M842.79 400.678C842.79 399.358 843.58 398.378 845.03 397.608C844.661 397.42 844.351 397.134 844.133 396.781C843.916 396.428 843.801 396.022 843.8 395.608C843.815 395.198 843.955 394.803 844.202 394.476C844.449 394.148 844.79 393.905 845.18 393.778C844.501 393.266 843.955 392.598 843.587 391.83C843.22 391.063 843.043 390.218 843.07 389.368C843.042 388.638 843.167 387.909 843.439 387.231C843.711 386.552 844.122 385.938 844.646 385.429C845.171 384.919 845.796 384.526 846.483 384.274C847.169 384.023 847.901 383.918 848.63 383.968C849.727 383.941 850.808 384.226 851.75 384.788C852.669 384.369 853.671 384.164 854.68 384.188H855.56L855.34 386.328H854.11C853.94 386.328 853.64 386.328 853.34 386.328C853.892 387.23 854.177 388.27 854.16 389.328C854.193 390.057 854.071 390.784 853.803 391.462C853.535 392.14 853.126 392.754 852.604 393.263C852.082 393.772 851.458 394.165 850.773 394.416C850.088 394.666 849.358 394.769 848.63 394.718C848.144 394.717 847.659 394.674 847.18 394.588C847.092 394.621 847.016 394.679 846.963 394.756C846.909 394.833 846.88 394.924 846.88 395.018C846.88 395.678 848.06 395.868 850.3 396.148C852.25 396.388 855.81 396.968 855.81 400.278C855.81 402.938 853.48 404.688 849.26 404.688C844.7 404.778 842.79 402.708 842.79 400.678ZM847.5 398.458C846.5 398.788 845.61 399.308 845.61 400.348C845.61 401.558 846.87 402.348 849.09 402.348C851.31 402.348 852.78 401.668 852.78 400.488C852.78 399.308 850.87 398.928 849.14 398.738C848.65 398.648 848.1 398.568 847.5 398.458ZM846.1 389.368C846.1 391.118 846.95 392.268 848.62 392.268C850.29 392.268 851.11 391.118 851.11 389.368C851.11 387.618 850.26 386.458 848.62 386.458C846.98 386.458 846.1 387.608 846.1 389.368Z" fill="#FAC113"/>
<path d="M860.04 391.778C860.143 392.78 860.62 393.707 861.377 394.372C862.133 395.038 863.113 395.393 864.12 395.368C865.592 395.3 867.031 394.915 868.34 394.238L868.5 397.118C867.077 397.808 865.511 398.151 863.93 398.118C858.93 398.118 856.51 394.858 856.51 391.028C856.51 387.198 858.86 383.928 863.08 383.928C863.874 383.887 864.667 384.012 865.41 384.295C866.152 384.578 866.827 385.013 867.392 385.573C867.957 386.132 868.399 386.802 868.689 387.542C868.98 388.282 869.113 389.074 869.08 389.868C869.072 390.497 869.001 391.123 868.87 391.738L860.04 391.778ZM860.12 389.478H865.65C865.685 389.134 865.647 388.787 865.539 388.459C865.43 388.13 865.254 387.829 865.021 387.574C864.787 387.319 864.503 387.116 864.185 386.979C863.868 386.842 863.526 386.773 863.18 386.778C862.423 386.759 861.688 387.027 861.12 387.527C860.553 388.028 860.195 388.725 860.12 389.478Z" fill="#FAC113"/>
<path d="M166.04 211.128C171.115 211.149 175.975 213.176 179.561 216.768C183.147 220.359 185.167 225.223 185.18 230.298V516.188C185.164 521.267 183.139 526.134 179.548 529.726C175.956 533.317 171.089 535.342 166.01 535.358H19.3599C14.2789 535.345 9.40953 533.321 5.81572 529.729C2.22191 526.137 0.195768 521.269 0.179932 516.188V230.298C0.19313 225.218 2.21707 220.349 5.80928 216.757C9.4015 213.165 14.2698 211.141 19.3499 211.128" fill="#FAC113"/>
<path d="M21.28 216.778H164.12C168.188 216.778 172.09 218.394 174.967 221.271C177.844 224.148 179.46 228.049 179.46 232.118V514.238C179.46 518.306 177.844 522.208 174.967 525.085C172.09 527.962 168.188 529.578 164.12 529.578H21.28C19.2668 529.578 17.2734 529.181 15.4134 528.411C13.5535 527.64 11.8636 526.511 10.44 525.088C9.01651 523.664 7.8873 521.974 7.1169 520.114C6.34649 518.254 5.94998 516.261 5.94998 514.248V232.148C5.94604 230.132 6.33958 228.134 7.10809 226.271C7.87661 224.407 9.00502 222.712 10.4288 221.285C11.8526 219.857 13.5438 218.725 15.4057 217.951C17.2677 217.178 19.2638 216.779 21.28 216.778Z" fill="white"/>
<path d="M59.67 379.378H55.8L56.38 375.378C54.1883 375.354 52.027 374.863 50.04 373.938L50.66 369.338C52.57 370.907 54.9903 371.718 57.46 371.618C59.81 371.618 61.15 371.108 61.15 369.698C61.15 365.938 49.75 367.238 49.75 361.128C49.75 358.698 51.38 355.808 56.38 355.338L55.8 351.178H59.67L59.09 355.338C61.0805 355.427 63.0341 355.906 64.84 356.748L64.44 360.838C62.5263 359.77 60.4045 359.129 58.22 358.958C56.34 358.958 54.22 359.208 54.22 360.688C54.22 364.198 66.05 362.388 66.05 369.688C66.05 371.748 65.05 374.858 59.14 375.368L59.67 379.378Z" fill="#FAC113"/>
<path d="M69.04 376.668L70.12 372.468C71.6491 373.692 73.5513 374.356 75.51 374.348C78.01 374.348 80.4 373.258 80.4 370.038C80.4 367.978 79.4 366.208 74.21 366.208H70.34L71.93 352.888H83.55L83.08 357.378H75.41L74.79 362.378C81.79 362.448 84.88 364.728 84.88 369.898C84.88 375.798 80.33 378.728 75.66 378.728C72.44 378.688 69.18 377.278 69.04 376.668Z" fill="#FAC113"/>
<path d="M88.83 365.958C88.83 357.958 93.57 352.388 99.68 352.388C105.79 352.388 110.1 357.708 110.1 365.338C110.1 373.338 105.8 378.728 99.25 378.728C92.99 378.778 88.83 373.628 88.83 365.958ZM93.46 365.958C93.46 371.958 95.99 374.568 99.32 374.568C102.87 374.568 105.54 371.888 105.54 365.338C105.54 359.338 102.68 356.478 99.61 356.478C96.54 356.478 93.46 359.478 93.46 365.958Z" fill="#FAC113"/>
<path d="M114.37 365.958C114.37 357.958 119.11 352.388 125.22 352.388C131.33 352.388 135.65 357.708 135.65 365.338C135.65 373.338 131.34 378.728 124.79 378.728C118.53 378.778 114.37 373.628 114.37 365.958ZM119 365.958C119 371.958 121.53 374.568 124.86 374.568C128.41 374.568 131.09 371.888 131.09 365.338C131.09 359.338 128.23 356.478 125.15 356.478C122.07 356.478 119 359.478 119 365.958Z" fill="#FAC113"/>
<path d="M104.77 395.178L103.77 387.248L100.93 392.688L98.02 387.248L97.02 395.178H95.52L96.93 384.678H98.18L100.94 389.878L103.67 384.678H104.9L106.29 395.178H104.77Z" fill="#FAC113"/>
<path d="M107.29 391.498C107.327 390.787 107.572 390.103 107.994 389.53C108.416 388.957 108.996 388.52 109.664 388.273C110.331 388.027 111.056 387.981 111.749 388.142C112.443 388.304 113.073 388.664 113.563 389.18C114.054 389.696 114.382 390.344 114.508 391.045C114.633 391.745 114.551 392.467 114.271 393.121C113.991 393.775 113.525 394.333 112.931 394.725C112.337 395.117 111.642 395.327 110.93 395.328C110.432 395.342 109.936 395.251 109.475 395.061C109.015 394.871 108.599 394.586 108.256 394.225C107.912 393.864 107.649 393.434 107.482 392.964C107.316 392.494 107.25 391.995 107.29 391.498ZM108.67 391.498C108.67 393.148 109.48 394.128 110.93 394.128C112.38 394.128 113.19 393.128 113.19 391.498C113.19 389.868 112.39 388.878 110.93 388.878C109.47 388.878 108.67 389.848 108.67 391.498Z" fill="#FAC113"/>
<path d="M121.24 395.178V391.128C121.24 389.568 120.72 388.878 119.32 388.878C118.928 388.854 118.537 388.934 118.186 389.109C117.834 389.285 117.536 389.55 117.32 389.878V395.218H115.98V387.868H116.98L117.13 388.648C117.786 388.03 118.659 387.696 119.56 387.718C121.71 387.718 122.56 389.058 122.56 391.168V395.218L121.24 395.178Z" fill="#FAC113"/>
<path d="M127.97 395.328H126.76C126.514 395.36 126.264 395.338 126.027 395.264C125.79 395.189 125.573 395.063 125.39 394.896C125.207 394.728 125.063 394.522 124.968 394.292C124.873 394.063 124.829 393.816 124.84 393.568V388.878H123.58L123.7 387.878H124.84V386.068L126.19 385.928V387.928H128.12V388.928H126.18V392.778C126.18 394.188 126.27 394.278 127.72 394.278H128.07L127.97 395.328Z" fill="#FAC113"/>
<path d="M134.3 395.178V391.248C134.3 389.508 133.85 388.878 132.54 388.878C132.159 388.85 131.777 388.929 131.438 389.105C131.099 389.282 130.816 389.549 130.62 389.878V395.218H129.26V383.968H130.62V388.668C130.869 388.346 131.194 388.091 131.566 387.926C131.937 387.76 132.344 387.688 132.75 387.718C134.87 387.718 135.65 389.178 135.65 391.288V395.218L134.3 395.178Z" fill="#FAC113"/>
<path d="M652.01 211.128H505.34C494.753 211.128 486.17 219.711 486.17 230.298V516.188C486.17 526.775 494.753 535.358 505.34 535.358H652.01C662.597 535.358 671.18 526.775 671.18 516.188V230.298C671.18 219.711 662.597 211.128 652.01 211.128Z" fill="#FAC113"/>
<path d="M650.09 216.848H507.26C498.788 216.848 491.92 223.716 491.92 232.188V514.298C491.92 522.77 498.788 529.638 507.26 529.638H650.09C658.562 529.638 665.43 522.77 665.43 514.298V232.188C665.43 223.716 658.562 216.848 650.09 216.848Z" fill="white"/>
<path d="M598.55 395.678L597.55 387.748L594.7 393.188L591.79 387.748L590.79 395.678H589.29L590.7 385.178H591.92L594.67 390.388L597.4 385.178H598.63L600.03 395.678H598.55Z" fill="#FAC113"/>
<path d="M601.06 392.008C601.093 391.294 601.335 390.606 601.756 390.028C602.177 389.451 602.758 389.01 603.427 388.759C604.096 388.509 604.824 388.46 605.521 388.62C606.217 388.779 606.851 389.14 607.345 389.656C607.839 390.173 608.17 390.823 608.297 391.526C608.425 392.229 608.343 392.954 608.063 393.611C607.782 394.268 607.315 394.829 606.719 395.223C606.123 395.617 605.425 395.827 604.71 395.828C604.212 395.842 603.717 395.751 603.257 395.562C602.796 395.372 602.38 395.089 602.036 394.729C601.692 394.369 601.428 393.94 601.26 393.472C601.091 393.003 601.023 392.504 601.06 392.008ZM602.44 392.008C602.44 393.648 603.25 394.628 604.71 394.628C606.17 394.628 606.97 393.628 606.97 392.008C606.97 390.388 606.16 389.378 604.71 389.378C603.26 389.378 602.44 390.358 602.44 392.008Z" fill="#FAC113"/>
<path d="M615.02 395.678V391.628C615.02 390.068 614.49 389.378 613.1 389.378C612.708 389.353 612.316 389.432 611.965 389.608C611.614 389.783 611.315 390.049 611.1 390.378V395.718H609.75V388.368H610.8L610.95 389.148C611.606 388.53 612.479 388.196 613.38 388.218C615.52 388.218 616.38 389.558 616.38 391.668V395.718L615.02 395.678Z" fill="#FAC113"/>
<path d="M621.74 395.828H620.53C620.284 395.86 620.034 395.838 619.797 395.764C619.56 395.689 619.343 395.563 619.16 395.396C618.977 395.228 618.833 395.022 618.738 394.792C618.643 394.563 618.599 394.316 618.61 394.068V389.378H617.35L617.47 388.378H618.61V386.568L619.96 386.428V388.428H621.89V389.428H619.96V393.298C619.96 394.708 620.05 394.798 621.51 394.798H621.85L621.74 395.828Z" fill="#FAC113"/>
<path d="M628.07 395.678V391.778C628.07 390.038 627.62 389.408 626.32 389.408C625.939 389.38 625.557 389.459 625.218 389.635C624.879 389.812 624.596 390.079 624.4 390.408V395.748H623.03V384.498H624.4V389.198C624.649 388.876 624.974 388.621 625.346 388.456C625.717 388.29 626.124 388.218 626.53 388.248C628.64 388.248 629.42 389.708 629.42 391.818V395.748L628.07 395.678Z" fill="#FAC113"/>
<path d="M533.98 382.978H530.1L530.68 378.978C528.49 378.955 526.331 378.461 524.35 377.528L524.97 372.938C526.88 374.507 529.3 375.318 531.77 375.218C534.12 375.218 535.46 374.708 535.46 373.298C535.46 369.538 524.06 370.838 524.06 364.728C524.06 362.298 525.69 359.408 530.68 358.938L530.1 354.778H533.98L533.4 358.938C535.39 359.028 537.344 359.508 539.15 360.348L538.75 364.438C536.837 363.367 534.715 362.723 532.53 362.548C530.65 362.548 528.48 362.808 528.48 364.288C528.48 367.798 540.31 365.988 540.31 373.288C540.31 375.358 539.31 378.468 533.4 378.978L533.98 382.978Z" fill="#FAC113"/>
<path d="M546.78 381.778V362.998C545.821 363.646 544.738 364.089 543.6 364.298L543.2 360.398C544.202 360.083 545.13 359.571 545.932 358.893C546.734 358.214 547.393 357.383 547.87 356.448H551.41V381.778H546.78Z" fill="#FAC113"/>
<path d="M557.06 369.548C557.06 361.548 561.8 355.988 567.91 355.988C574.02 355.988 578.33 361.298 578.33 368.938C578.33 376.938 574.03 382.328 567.48 382.328C561.18 382.328 557.06 377.228 557.06 369.548ZM561.69 369.548C561.69 375.598 564.22 378.168 567.55 378.168C571.1 378.168 573.77 375.488 573.77 368.938C573.77 362.938 570.92 360.068 567.84 360.068C564.76 360.068 561.69 363.078 561.69 369.548Z" fill="#FAC113"/>
<path d="M582.6 369.548C582.6 361.548 587.34 355.988 593.46 355.988C599.58 355.988 603.88 361.298 603.88 368.938C603.88 376.938 599.57 382.328 593.02 382.328C586.76 382.328 582.6 377.228 582.6 369.548ZM587.23 369.548C587.23 375.598 589.76 378.168 593.09 378.168C596.64 378.168 599.32 375.488 599.32 368.938C599.32 362.938 596.46 360.068 593.38 360.068C590.3 360.068 587.23 363.078 587.23 369.548Z" fill="#FAC113"/>
<path d="M608.18 369.548C608.18 361.548 612.92 355.988 619.04 355.988C625.16 355.988 629.46 361.298 629.46 368.938C629.46 376.938 625.15 382.328 618.6 382.328C612.31 382.328 608.18 377.228 608.18 369.548ZM612.82 369.548C612.82 375.598 615.35 378.168 618.68 378.168C622.22 378.168 624.9 375.488 624.9 368.938C624.9 362.938 622.04 360.068 618.97 360.068C615.9 360.068 612.78 363.078 612.78 369.548H612.82Z" fill="#FAC113"/>
<path d="M409.02 211.128H262.35C251.763 211.128 243.18 219.711 243.18 230.298V516.188C243.18 526.775 251.763 535.358 262.35 535.358H409.02C419.607 535.358 428.19 526.775 428.19 516.188V230.298C428.19 219.711 419.607 211.128 409.02 211.128Z" fill="#FAC113"/>
<path d="M407.1 216.848H264.27C255.798 216.848 248.93 223.716 248.93 232.188V514.298C248.93 522.77 255.798 529.638 264.27 529.638H407.1C415.572 529.638 422.44 522.77 422.44 514.298V232.188C422.44 223.716 415.572 216.848 407.1 216.848Z" fill="white"/>
<path d="M342.32 395.678L341.32 387.748L338.47 393.188L335.56 387.748L334.56 395.678H333.06L334.47 385.178H335.68L338.44 390.388L341.17 385.178H342.4L343.79 395.678H342.32Z" fill="#FAC113"/>
<path d="M344.84 392.008C344.875 391.297 345.118 390.611 345.539 390.037C345.96 389.462 346.54 389.024 347.207 388.776C347.875 388.528 348.6 388.481 349.294 388.641C349.988 388.801 350.62 389.161 351.111 389.677C351.602 390.192 351.931 390.841 352.058 391.541C352.184 392.242 352.102 392.964 351.822 393.619C351.542 394.274 351.076 394.832 350.482 395.225C349.888 395.617 349.192 395.827 348.48 395.828C347.983 395.842 347.488 395.751 347.028 395.562C346.568 395.372 346.153 395.088 345.81 394.728C345.466 394.368 345.203 393.94 345.036 393.471C344.869 393.002 344.802 392.504 344.84 392.008ZM346.22 392.008C346.22 393.648 347.03 394.628 348.48 394.628C349.93 394.628 350.74 393.628 350.74 392.008C350.74 390.388 349.93 389.378 348.48 389.378C347.03 389.378 346.18 390.358 346.18 392.008H346.22Z" fill="#FAC113"/>
<path d="M358.79 395.678V391.628C358.79 390.068 358.27 389.378 356.87 389.378C356.478 389.354 356.087 389.434 355.736 389.609C355.384 389.785 355.086 390.05 354.87 390.378V395.718H353.52V388.368H354.57L354.72 389.148C355.376 388.53 356.249 388.196 357.15 388.218C359.29 388.218 360.15 389.558 360.15 391.668V395.718L358.79 395.678Z" fill="#FAC113"/>
<path d="M365.52 395.828H364.31C364.064 395.86 363.814 395.838 363.577 395.764C363.34 395.689 363.123 395.563 362.94 395.396C362.757 395.228 362.613 395.022 362.518 394.792C362.423 394.563 362.379 394.316 362.39 394.068V389.378H361.18L361.3 388.378H362.44V386.568L363.78 386.428V388.428H365.72V389.428H363.78V393.298C363.78 394.708 363.88 394.798 365.33 394.798H365.67L365.52 395.828Z" fill="#FAC113"/>
<path d="M371.84 395.678V391.778C371.84 390.038 371.39 389.408 370.09 389.408C369.709 389.38 369.327 389.459 368.988 389.635C368.649 389.812 368.366 390.079 368.17 390.408V395.748H366.81V384.498H368.18V389.198C368.429 388.876 368.754 388.621 369.126 388.456C369.497 388.29 369.904 388.218 370.31 388.248C372.42 388.248 373.2 389.708 373.2 391.818V395.748L371.84 395.678Z" fill="#FAC113"/>
<path d="M304.31 379.878H300.43L301.01 375.878C298.821 375.858 296.662 375.366 294.68 374.438L295.3 369.838C297.21 371.407 299.63 372.218 302.1 372.118C304.45 372.118 305.79 371.618 305.79 370.198C305.79 366.438 294.39 367.738 294.39 361.628C294.39 359.198 296.02 356.308 301.01 355.838L300.43 351.678H304.31L303.73 355.838C305.72 355.927 307.674 356.406 309.48 357.248L309.08 361.338C307.166 360.27 305.045 359.629 302.86 359.458C300.98 359.458 298.81 359.708 298.81 361.188C298.81 364.698 310.64 362.898 310.64 370.188C310.64 372.248 309.64 375.358 303.73 375.868L304.31 379.878Z" fill="#FAC113"/>
<path d="M319.54 378.718H314.69L323.37 357.878H313.46V353.398H330.1L319.54 378.718Z" fill="#FAC113"/>
<path d="M332.18 377.168L333.26 372.968C334.789 374.192 336.691 374.856 338.65 374.848C341.15 374.848 343.54 373.768 343.54 370.548C343.54 368.478 342.54 366.708 337.35 366.708H333.48L335.07 353.398H346.69L346.22 357.878H338.55L337.93 362.878C344.93 362.948 348.03 365.228 348.03 370.408C348.03 376.298 343.47 379.228 338.8 379.228C335.53 379.188 332.27 377.778 332.18 377.168Z" fill="#FAC113"/>
<path d="M351.92 366.458C351.92 358.458 356.66 352.888 362.77 352.888C368.88 352.888 373.19 358.208 373.19 365.838C373.19 373.838 368.89 379.228 362.34 379.228C356.08 379.228 351.92 374.128 351.92 366.458ZM356.55 366.458C356.55 372.458 359.08 375.068 362.41 375.068C365.96 375.068 368.63 372.388 368.63 365.838C368.63 359.838 365.78 356.978 362.7 356.978C359.62 356.978 356.55 359.978 356.55 366.458Z" fill="#FAC113"/>
</svg>
