<svg xmlns="http://www.w3.org/2000/svg" viewBox="0 0 202.67 41.92"><defs><style>.cls-1{fill:#36362e;}.cls-2{fill:#e9352e;}</style></defs><title>Asset 1</title><g id="Layer_2" data-name="Layer 2"><g id="Layer_1-2" data-name="Layer 1"><path class="cls-1" d="M0,3.09A1.71,1.71,0,0,1,1.67,2C4.78,1.64,7.9,1.88,11,1.77a34.93,34.93,0,0,0,5.87-.35,3.36,3.36,0,0,1,1.26.07c.86.15,1.05.72.49,1.42-1.15,1.42-1.21,2.34-.21,4C20.61,10.43,22.83,14,25,17.53a26.33,26.33,0,0,0,2.43,3.94A8.26,8.26,0,0,0,29,19.33a27.1,27.1,0,0,1,3.64-4.28A29.23,29.23,0,0,0,34.8,12.4a41.69,41.69,0,0,0,5-7.38,2.18,2.18,0,0,0-.13-1.93c-.32-.81-.3-1,.41-1.4a3,3,0,0,1,1.48-.35,18.31,18.31,0,0,1,3,.19,32.16,32.16,0,0,0,6.65.28c1.58,0,3.16,0,4.74,0a1.52,1.52,0,0,1,1.18,1,.64.64,0,0,1-.47.69c-1.56.66-2.48,2-3.52,3.24a3.27,3.27,0,0,1-.66.58,4.63,4.63,0,0,0-1.71,2.76c-.7,2.76-.64,5.58-.88,8.39a62.83,62.83,0,0,0,.32,9c.11,2,.15,3.92.24,5.88a5.49,5.49,0,0,0,.15,1.15,1.41,1.41,0,0,0,1.07,1.15A1.48,1.48,0,0,0,53.28,35a9,9,0,0,0,.89-1.56,33.49,33.49,0,0,1,2.56-4.71,25.36,25.36,0,0,0,1.44-2.85,63.28,63.28,0,0,1,2.93-5.67c1.45-2.51,2.72-5.12,4.07-7.69.39-.75.86-1.48,1.18-2.26,1-2.61,2.41-5.05,3.57-7.6a8.56,8.56,0,0,1,.42-.79A2.17,2.17,0,0,1,71.83.94c.46-.13.64.48.91.78a11.83,11.83,0,0,1,1.22,2C75,5.42,76,7.21,76.87,9.06c.72,1.48,1.55,2.92,2.16,4.46.75,1.93,1.79,3.71,2.65,5.58q1,2.26,2.09,4.55c1,2.29,2.56,4.33,3.72,6.56.56,1.09,1.25,2.11,1.87,3.17a5.15,5.15,0,0,0,4.58,2.73,7.19,7.19,0,0,0,2.65-.17,12.38,12.38,0,0,1,2.91-.34c1.34-.11,1.77-.51,1.94-1.88A107.71,107.71,0,0,0,102.25,19c0-1.74.11-3.49.12-5.23,0-1.23-.08-2.47-.14-3.7s-.23-1.25-1.34-1.51a11.58,11.58,0,0,0-3.16-.21c-1,0-2,.15-2.94.11a1.94,1.94,0,0,0-1.22.32c-1.41,1-3,1.75-4.07,3.23a1.52,1.52,0,0,1-.51.38c-.64.37-.84.28-1.16-.39a2.92,2.92,0,0,1-.17-1.51,50.37,50.37,0,0,0,.16-5.76,10.36,10.36,0,0,1,.28-2.54,1.18,1.18,0,0,1,1.36-1c2.39.07,4.78.13,7.17.15,1.16,0,2.3.18,3.45.25a72.19,72.19,0,0,0,8.7.17c2.52-.15,5,0,7.55-.07,2.69-.12,5.36.36,8,.14a1.54,1.54,0,0,1,1.2.34.71.71,0,0,1,.27.8,12.61,12.61,0,0,0-.38,5.43,3.15,3.15,0,0,1-.19,1.63c-.55,1.15-.83,1.25-1.87.45a10.92,10.92,0,0,1-.9-.9,2.9,2.9,0,0,0-2.42-.95c-1.15.11-2.29,0-3.41,0a14.76,14.76,0,0,0-4.78.65c-.44.15-.66.4-.56.85a15.62,15.62,0,0,1,0,3.55c0,1.52-.08,3,0,4.57s0,3.05,0,4.58c0,1.14,0,2.29.09,3.43.16,2.08.27,4.18.54,6.26a3.09,3.09,0,0,0,2.07,2.67,8.56,8.56,0,0,0,5.73.51c1-.26.9-.18,1.26.66.55,1.3.47,2.77,1.15,4,.2.37-.21.55-.61.58-1.48.12-3,.23-4.43.41-2.08.26-4.17.18-6.25.3a83.4,83.4,0,0,1-13.87-.22,22.72,22.72,0,0,0-3.3.14c-1.2,0-2.39-.1-3.58,0-.58.05-1.19-.19-1.78-.18-2.08.05-4.17.14-6.25.25a25.39,25.39,0,0,0-3.79.24c-.74.15-1.34-.4-2-.66-.31-.12-.06-1.67.27-2a4.27,4.27,0,0,1,.64-.4,13.31,13.31,0,0,0,1.9-1.48,1.41,1.41,0,0,0,.39-1.66c-.43-1.15-.87-2.31-1.32-3.46a1,1,0,0,0-1-.69,7.26,7.26,0,0,0-2.9,0c-.6.17-1.16-.25-1.77-.17-2.88.38-5.79,0-8.68.33,0,0-.09,0-.12,0-1.78-.53-2.46.46-2.78,2a6.77,6.77,0,0,1-.2.74c-.51,1.48-.5,1.55.74,2.48a7.38,7.38,0,0,1,1.93,1.85c.64,1,.47,1.68-.61,2.07a9.22,9.22,0,0,1-4.43.49c-2-.27-3.92-.14-5.88-.26-3.11-.18-6.21.21-9.33.13-1.09,0-2.19.23-3.3.31s-1.54-.61-2.3-.92c-.3-.12-.28-.67-.17-.95.26-.61.31-1.31.85-1.8,2.13-1.92,2.45-4.49,2.5-7.14,0-2,.2-4,.09-6,0-.81-.08-1.62-.17-2.43a8.17,8.17,0,0,1-.05-2.42,2.84,2.84,0,0,0-.22-1.64A8.31,8.31,0,0,0,39.25,20C38,22,36.91,24.15,35.6,26.15A38.78,38.78,0,0,0,33,29.81c-.88,1.81-2.28,3.29-3.15,5.12a8.68,8.68,0,0,1-2.19,2.78,5.37,5.37,0,0,1-2.47,1.07c-.3.06-.64,0-.72-.38a12.51,12.51,0,0,0-1.84-3.46c-1.67-2.82-3.47-5.56-5.19-8.35-1.25-2-2.41-4.13-3.76-6.11a2.43,2.43,0,0,0-.56-.66c.08,1.81-.24,3.58-.1,5.34.29,3.65.41,7.31.55,11a4.18,4.18,0,0,0,1.15,2.37c.2.27.51.43.61.8.24.94.06,1.26-.9,1.31a17.51,17.51,0,0,1-2.05,0c-1.92-.15-3.82.33-5.75.17-.85-.08-1.7-.1-2.56-.12-.45,0-1.07-.1-1.07-.46s-.17-1,.31-1.39c.17-.13.29-.33.47-.43a3.21,3.21,0,0,0,1.52-2.26,36.22,36.22,0,0,0,1.06-8.86c0-1.54-.09-3.07-.07-4.6,0-2.47.15-4.93.25-7.4A27.51,27.51,0,0,0,6.22,9.5,5,5,0,0,0,4.9,7.1a30.57,30.57,0,0,0-4.9-4M79.05,40c.06.05.12.15.18.15,3.54,0,7.07-.34,10.62-.19a52.33,52.33,0,0,0,6.5-.14,5.86,5.86,0,0,1,1,.05c1.15.09,2.3.27,3.45.28,3.63,0,7.26-.09,10.9-.1,2.44,0,4.83-.59,7.26-.55a1.55,1.55,0,0,0,.63-.13c.63-.26.34-.79.29-1.21s-.38-.36-.69-.28a10.32,10.32,0,0,1-6.13-.72,4,4,0,0,1-2.59-2.93,35.28,35.28,0,0,1-.84-9.27c0-1.41.19-2.81.11-4.21-.12-2.08.25-4.16-.05-6.24a3.85,3.85,0,0,1,.11-.88,5.59,5.59,0,0,0,.11-1.4c-.22-1.39.27-2.71.23-4.09,0-.67.32-.91,1-.78a3.61,3.61,0,0,0,1.76-.12,15.68,15.68,0,0,1,5.32-.53,8.34,8.34,0,0,0,2.29-.14,3,3,0,0,1,2.27.59c.23.15.34.52.76.37A16.14,16.14,0,0,1,123.92,4c.12-.48-.16-.63-.56-.63-.94,0-1.88,0-2.82,0-4.48,0-9-.18-13.45.15a13.36,13.36,0,0,1-1.79,0c-2.94-.19-5.88-.38-8.82-.53-2.07-.1-4.17.2-6.22-.37-.63-.18-.81,0-.82.74,0,1.62,0,3.25,0,4.87a1.81,1.81,0,0,0,.33,1.12c.44-.32.83-.58,1.19-.87a6.76,6.76,0,0,1,5.11-1.87,2.82,2.82,0,0,0,.76-.06,15,15,0,0,1,5.7.26,1.18,1.18,0,0,1,1.12,1.23c.26,3,.24,6,.23,8.93,0,1.95.33,3.92-.19,5.84.36,2.53-.09,5-.27,7.54a14,14,0,0,1-1.06,5.1,3.2,3.2,0,0,1-2.73,2c-2.07.2-4.12.76-6.22.61-1-.07-2.09,0-2.8-.65a18,18,0,0,1-3.06-3.58,92.2,92.2,0,0,1-4.8-8.44c-1.38-3-2.87-5.91-4.25-8.89A116.57,116.57,0,0,0,72.93,5a6.87,6.87,0,0,0-1.45-2.09,42,42,0,0,1-2.37,5.16c-.73,1.63-1.44,3.26-2.29,4.84-.36.67-.74,1.33-1,2-.83,2-2,3.74-3,5.61C62,22,61.2,23.35,60.58,24.84a45.85,45.85,0,0,1-2.69,5.33c-.61,1.07-1.25,2.13-1.8,3.23a7.86,7.86,0,0,1-2.55,3.39c-2.32,1.47-4.46.12-4.73-2a18.27,18.27,0,0,1-.19-3.69,7,7,0,0,0,0-1.12,52.11,52.11,0,0,1-.45-7.15c.11-2.05-.08-4.09.18-6.14.14-1.11.28-2.25.34-3.38a22.46,22.46,0,0,1,1.05-5.09A2.23,2.23,0,0,1,50.59,7c1-.71,1.68-1.81,2.69-2.54a2.37,2.37,0,0,0,.84-1.06,27.54,27.54,0,0,0-2.88,0,21.62,21.62,0,0,1-4.18,0,21.58,21.58,0,0,0-4.47-.36c-1.18,0-1.18,0-1.22,1.15a3.3,3.3,0,0,1-.25,1.5,29.29,29.29,0,0,1-2.68,4.46c-2,2.38-3.68,5-5.93,7.2a18.4,18.4,0,0,0-3.89,5.2,4.21,4.21,0,0,1-1,1.33c-.46.42-.79.37-1.14-.17-.5-.79-1-1.59-1.44-2.42-1.25-2.34-2.94-4.41-4.21-6.74C19.89,12.8,19.07,11,18,9.28c-.42-.65-.85-1.3-1.22-2a3.05,3.05,0,0,1-.11-3.39.86.86,0,0,0,.19-.77c-4.25.38-8.54.08-13.13.3a33.51,33.51,0,0,1,2.86,3,3.91,3.91,0,0,1,.9,1.66A22.22,22.22,0,0,1,8,13.92c0,3.89,0,7.78,0,11.67,0,1.06.16,2.11.08,3.19-.13,1.57-.35,3.12-.61,4.68a12.37,12.37,0,0,1-1.65,5.3c0,.05,0,.16,0,.29,2.18.19,4.35-.29,6.68,0a11.72,11.72,0,0,1-.78-4.47c-.17-4.51-.38-9-.45-13.53,0-1.66.39-3.31.07-5a2,2,0,0,1,.2-.86.72.72,0,0,1,.68-.5c.34,0,.52.23.58.56a3.81,3.81,0,0,0,.53,1.16c1.53,2.91,3.64,5.46,5.11,8.41,1.13,2.29,2.7,4.32,4,6.48,1,1.55,1.85,3.15,2.82,4.7.51.82.92.92,1.49.18A17.29,17.29,0,0,0,28.32,34c1.19-2.23,2.65-4.28,4-6.39.49-.75,1-1.46,1.55-2.19,1.22-1.76,2.21-3.66,3.31-5.48a40.14,40.14,0,0,0,3.14-5.28c.15-.38.51-.56.75-.86s.69-.28,1-.08.22.5.1.79A4.37,4.37,0,0,0,42,16.89c.31,2.42.5,4.85.59,7.27A65.25,65.25,0,0,1,42.41,33a8.81,8.81,0,0,1-2.78,5.85c-.16.15-.35.26-.22.52s.23.46.55.45a4.35,4.35,0,0,0,.89,0,13.76,13.76,0,0,1,3.32-.23c1.38,0,2.74-.06,4.1-.14a48.91,48.91,0,0,1,9.21.37,6.9,6.9,0,0,0,3.68-.67c-1-.23-1.44-1.11-2.16-1.62a1.32,1.32,0,0,1-.5-1.57A40.3,40.3,0,0,1,60.62,31a1.8,1.8,0,0,1,1.6-.92c1.06-.07,2.11-.27,3.19-.26,2,0,3.94,0,5.9,0a29.21,29.21,0,0,1,4.86.13A6,6,0,0,0,78,30a1.3,1.3,0,0,1,1.47.9c.39,1.6,1.22,3,1.65,4.64a3,3,0,0,1-.52,2.84,4.3,4.3,0,0,1-1.09,1.08c-.21.13-.47.24-.42.57"/><path class="cls-1" d="M133.35,1.59c2.91,0,5.8-.21,8.7-.41A90.87,90.87,0,0,1,151.39,1c1.79.07,3.58-.07,5.37-.11a35.38,35.38,0,0,1,7.89.63c1,.2,1.16.57.94,1.53a2.25,2.25,0,0,0-.11.88A10.83,10.83,0,0,1,165.31,7a4.18,4.18,0,0,0,.11,2.13,2.49,2.49,0,0,1-.29,2.1.57.57,0,0,1-.94.24,3.35,3.35,0,0,1-1.31-1.38A3.64,3.64,0,0,0,158.8,7.7a15.71,15.71,0,0,0-4.76.78c-.62.27-1.25.54-1.9.75a.49.49,0,0,0-.38.56,49.92,49.92,0,0,1-.57,6.22c-.33,4.55-.37,9.1-.29,13.66a9.78,9.78,0,0,0,.54,2.88A3.89,3.89,0,0,0,154.85,35a2.08,2.08,0,0,1,2.26,2.37c0,.47-.08.94-.14,1.4-.16,1.29-.16,1.29-1.39,1.49a1.73,1.73,0,0,1-.38.05c-4.18,0-8.35.43-12.53.21a32.28,32.28,0,0,0-4.06.13,25.21,25.21,0,0,1-3.69-.21.9.9,0,0,1-.92-1c.09-1,.2-2,.36-2.91.1-.58.53-.79,1.13-.81a23.66,23.66,0,0,0,2.67-.26,2.19,2.19,0,0,0,2-1.38,26.32,26.32,0,0,0,1.64-5.63c.29-2.41.42-4.84.69-7.24.2-1.73.38-3.47.54-5.2a15.57,15.57,0,0,0-.46-5.68,1.39,1.39,0,0,0-1.09-1.08,26.54,26.54,0,0,0-3.68-.39A9.57,9.57,0,0,0,133.6,9a2.93,2.93,0,0,1-1,.07,3.12,3.12,0,0,0-2.41,1,5.31,5.31,0,0,1-.74.69c-.86.51-1.59.12-1.53-.85.14-2.1-.08-4.19-.1-6.28,0-1.39.45-2,1.84-2s2.48,0,3.71,0M129.72,8c.86-.17,1.36-.79,2.08-.75a23.36,23.36,0,0,0,3.55-.38c.47,0,.94,0,1.4,0a48.06,48.06,0,0,1,5.08.4,2.14,2.14,0,0,1,1.92,1.44,17.86,17.86,0,0,1,1,6.78,32.29,32.29,0,0,1-.52,5.09,25.58,25.58,0,0,1-.23,2.8,8.38,8.38,0,0,0-.24,2.77,7.78,7.78,0,0,1-.23,2.41A35.8,35.8,0,0,1,142,33.86a4.92,4.92,0,0,1-3.55,3.36,5.75,5.75,0,0,1-1.75.31c-.36-.05-.52.11-.57.49-.11.85-.05,1,.82,1,.51,0,1,0,1.54,0,1.54,0,3.07-.28,4.61-.18a48.38,48.38,0,0,0,7,0c1.48-.11,3,0,4.48,0,.28,0,.62.1.77-.26a1,1,0,0,0-.85-1.35,5.36,5.36,0,0,1-4.81-3.77,15.38,15.38,0,0,1-.71-4.78c.13-2.65.07-5.29.13-7.93a21.67,21.67,0,0,1,.28-4A32.77,32.77,0,0,0,150,9.63a4.24,4.24,0,0,1,.42-1.85c.17-.37.44-.63.77-.47.68.35,1.12-.1,1.66-.31a11.29,11.29,0,0,1,3.75-1.21c1.15,0,2.3,0,3.44-.14a3.51,3.51,0,0,1,2.5.76c.35.26.58.74,1.18.8a14.56,14.56,0,0,0,.08-2.94c0-1.64.12-1.4-1.33-1.52-.68,0-1.36-.15-2.05-.15-5,0-10.06-.08-15.08.2-1.24.07-2.49,0-3.72.1-3.77.39-7.56.35-11.35.42-.24,0-.49,0-.77-.06-.17,1.55.24,3.06.2,4.7"/><path class="cls-1" d="M202.61,22.25a22.24,22.24,0,0,1-.27,4.48A14.8,14.8,0,0,1,200.86,32a13.43,13.43,0,0,0-.57,1.28,7.19,7.19,0,0,1-3.64,3.93A32.91,32.91,0,0,0,193.41,39c-2.2,1.47-4.71,1.69-7.22,1.68a32,32,0,0,0-3.42.23,18.09,18.09,0,0,1-3.78-.35,5.77,5.77,0,0,1-3.42-1.17,25.9,25.9,0,0,1-3.71-3.29A48.42,48.42,0,0,1,168,30.54a14.27,14.27,0,0,1-1.46-5.23,20.45,20.45,0,0,1,.18-5.47,8.88,8.88,0,0,1,.77-3.2c.48-.93.54-2,1-3a31.89,31.89,0,0,1,3.65-6.57,16,16,0,0,1,7.77-6A26.36,26.36,0,0,1,185.77,0a3.77,3.77,0,0,1,1.49.21,9.27,9.27,0,0,0,2.35.56,10.29,10.29,0,0,1,7.67,4.3,25.34,25.34,0,0,1,4.29,8.48,26.33,26.33,0,0,1,1,8.69m-1.81,0a23.12,23.12,0,0,0-.56-6,31.19,31.19,0,0,0-3.05-7.57,11.67,11.67,0,0,0-4.82-5A19,19,0,0,0,185,1.86a12.26,12.26,0,0,0-5.92,1.36,10.09,10.09,0,0,0-3.69,2.7c-1.48,1.7-3.11,3.3-3.85,5.52a1,1,0,0,1-.14.22,14.91,14.91,0,0,0-2,4.67,21.23,21.23,0,0,0-1,7.69,11.66,11.66,0,0,0,1.23,5,32.62,32.62,0,0,0,4.09,5.82,18.27,18.27,0,0,0,3.21,2.68,3.9,3.9,0,0,0,1.61.69,19.71,19.71,0,0,0,7.1.26,2,2,0,0,1,.64,0,18.55,18.55,0,0,0,5.19-.63,4.64,4.64,0,0,0,2.21-1,8.84,8.84,0,0,1,2.44-1.4,3.76,3.76,0,0,0,2.11-2,32.53,32.53,0,0,0,1.92-4.88,28.17,28.17,0,0,0,.68-6.47"/><path class="cls-2" d="M79.05,40c0-.33.21-.44.42-.57a4.3,4.3,0,0,0,1.09-1.08,3,3,0,0,0,.52-2.84c-.43-1.6-1.26-3-1.65-4.64A1.3,1.3,0,0,0,78,30a6,6,0,0,1-1.79-.07,29.21,29.21,0,0,0-4.86-.13c-2,0-3.93.06-5.9,0-1.08,0-2.13.19-3.19.26a1.8,1.8,0,0,0-1.6.92,40.3,40.3,0,0,0-2.12,4.92,1.32,1.32,0,0,0,.5,1.57c.72.51,1.13,1.39,2.16,1.62a6.9,6.9,0,0,1-3.68.67,48.91,48.91,0,0,0-9.21-.37c-1.36.08-2.73.16-4.1.14a13.76,13.76,0,0,0-3.32.23,4.35,4.35,0,0,1-.89,0c-.32,0-.44-.22-.55-.45s.06-.37.22-.52A8.81,8.81,0,0,0,42.41,33a65.25,65.25,0,0,0,.21-8.84c-.09-2.42-.28-4.85-.59-7.27a4.37,4.37,0,0,1,.21-2.38c.12-.29.24-.6-.1-.79s-.73-.32-1,.08-.6.48-.75.86a40.14,40.14,0,0,1-3.14,5.28c-1.1,1.82-2.09,3.72-3.31,5.48-.51.73-1.06,1.44-1.55,2.19-1.38,2.11-2.84,4.16-4,6.39a17.29,17.29,0,0,1-1.5,2.22c-.57.74-1,.64-1.49-.18-1-1.55-1.85-3.15-2.82-4.7-1.34-2.16-2.91-4.19-4-6.48-1.47-2.95-3.58-5.5-5.11-8.41a3.81,3.81,0,0,1-.53-1.16c-.06-.33-.24-.59-.58-.56a.72.72,0,0,0-.68.5,2,2,0,0,0-.2.86c.32,1.67-.1,3.32-.07,5,.07,4.51.28,9,.45,13.53a11.72,11.72,0,0,0,.78,4.47c-2.33-.31-4.5.17-6.68,0,0-.13-.06-.24,0-.29a12.37,12.37,0,0,0,1.65-5.3c.26-1.56.48-3.11.61-4.68C8.17,27.7,8,26.65,8,25.59c0-3.89-.07-7.78,0-11.67a22.22,22.22,0,0,0-.52-5.86,3.91,3.91,0,0,0-.9-1.66A33.51,33.51,0,0,0,3.71,3.45c4.59-.22,8.88.08,13.13-.3a.85.85,0,0,1-.19.77,3.05,3.05,0,0,0,.11,3.39c.37.67.8,1.32,1.22,2,1.09,1.68,1.91,3.52,2.86,5.28,1.27,2.33,3,4.4,4.21,6.74.44.83.94,1.63,1.44,2.42.35.54.68.59,1.14.17a4.21,4.21,0,0,0,1-1.33,18.4,18.4,0,0,1,3.89-5.2c2.25-2.2,3.93-4.82,5.93-7.2A29.29,29.29,0,0,0,41.12,5.7a3.3,3.3,0,0,0,.25-1.5c0-1.16,0-1.15,1.22-1.15a21.58,21.58,0,0,1,4.47.36,21.62,21.62,0,0,0,4.18,0,27.54,27.54,0,0,1,2.88,0,2.37,2.37,0,0,1-.84,1.06c-1,.73-1.66,1.83-2.69,2.54a2.23,2.23,0,0,0-.88,1.24,22.46,22.46,0,0,0-1.05,5.09c-.06,1.13-.2,2.27-.34,3.38-.26,2.05-.07,4.09-.18,6.14A52.11,52.11,0,0,0,48.59,30a7,7,0,0,1,0,1.12,18.27,18.27,0,0,0,.19,3.69c.27,2.1,2.41,3.45,4.73,2a7.86,7.86,0,0,0,2.55-3.39c.55-1.1,1.19-2.16,1.8-3.23a45.07,45.07,0,0,0,2.69-5.33c.62-1.49,1.45-2.88,2.2-4.31,1-1.87,2.17-3.64,3-5.61.3-.7.68-1.36,1-2,.85-1.58,1.56-3.21,2.29-4.84a42,42,0,0,0,2.37-5.16A6.87,6.87,0,0,1,72.93,5a116.57,116.57,0,0,1,5.58,11.53c1.38,3,2.87,5.91,4.25,8.89a92.2,92.2,0,0,0,4.8,8.44,18,18,0,0,0,3.06,3.58c.71.68,1.84.58,2.8.65,2.1.15,4.15-.41,6.22-.61a3.2,3.2,0,0,0,2.73-2,14,14,0,0,0,1.06-5.1c.18-2.51.63-5,.27-7.54.52-1.92.19-3.89.19-5.84,0-3,0-6-.23-8.93a1.2,1.2,0,0,0-1.12-1.24,15.2,15.2,0,0,0-5.7-.25,2.82,2.82,0,0,1-.76.06A6.76,6.76,0,0,0,91,8.49c-.36.29-.75.55-1.19.87a1.81,1.81,0,0,1-.33-1.12c0-1.62,0-3.25,0-4.87,0-.75.19-.92.82-.74,2,.57,4.15.27,6.22.37,2.94.15,5.88.34,8.82.54a15.25,15.25,0,0,0,1.79,0c4.48-.33,9-.14,13.45-.15.94,0,1.88,0,2.82,0,.4,0,.68.15.56.63a16.14,16.14,0,0,0-.35,3.53c-.42.16-.53-.22-.76-.37a3,3,0,0,0-2.27-.59,8.34,8.34,0,0,1-2.29.14,15.68,15.68,0,0,0-5.32.53,3.61,3.61,0,0,1-1.76.12c-.69-.13-1,.11-1,.78,0,1.37-.45,2.71-.23,4.09a5.59,5.59,0,0,1-.11,1.4,3.85,3.85,0,0,0-.11.88c.3,2.08-.07,4.16.05,6.24.08,1.4-.08,2.8-.11,4.21a35.28,35.28,0,0,0,.84,9.27,4,4,0,0,0,2.59,2.93,10.32,10.32,0,0,0,6.13.72c.31-.08.64-.13.69.28s.34.95-.29,1.21a1.55,1.55,0,0,1-.63.13c-2.43,0-4.82.55-7.26.55-3.64,0-7.27.1-10.9.1-1.15,0-2.3-.19-3.45-.28a5.86,5.86,0,0,0-1-.05,52.33,52.33,0,0,1-6.5.14c-3.55-.15-7.08.16-10.62.19-.06,0-.12-.1-.18-.15M77.81,27.1a1.91,1.91,0,0,0-.16-.88c-.58-1.17-1-2.41-1.55-3.6A72.1,72.1,0,0,1,71.87,12c-.23-.77-.64-.89-1.33-.46a1.84,1.84,0,0,0-.71.87c-.42.89-.84,1.78-1.32,2.63-1.11,2-2.61,3.75-3.34,6a17.06,17.06,0,0,1-2.38,4.65,1.15,1.15,0,0,0-.06,1.42,2.78,2.78,0,0,0,1.83,1.16,48.48,48.48,0,0,0,6.26-.1,30.57,30.57,0,0,1,5.74,0c1,.1,1.23-.05,1.25-1"/><path class="cls-2" d="M129.72,8c0-1.64-.37-3.15-.2-4.7.28,0,.53.06.77.06,3.79-.07,7.58,0,11.35-.42,1.23-.13,2.48,0,3.72-.1,5-.28,10.06-.16,15.08-.2.69,0,1.37.1,2.05.15,1.45.12,1.29-.12,1.33,1.52a14.56,14.56,0,0,1-.08,2.94c-.6-.06-.83-.54-1.18-.8a3.51,3.51,0,0,0-2.5-.76c-1.14.1-2.29.13-3.44.14A11.29,11.29,0,0,0,152.87,7c-.54.21-1,.66-1.66.31-.33-.16-.6.1-.77.47A4.24,4.24,0,0,0,150,9.63a32.77,32.77,0,0,1-.65,7.12,21.67,21.67,0,0,0-.28,4c-.06,2.64,0,5.28-.13,7.93a15.38,15.38,0,0,0,.71,4.78,5.36,5.36,0,0,0,4.81,3.77,1,1,0,0,1,.85,1.35c-.15.36-.49.25-.77.26-1.49,0-3-.07-4.48,0a48.38,48.38,0,0,1-7,0c-1.54-.1-3.07.14-4.61.18-.51,0-1,0-1.54,0-.87-.05-.93-.16-.82-1,0-.38.21-.54.57-.49a5.75,5.75,0,0,0,1.75-.31A4.92,4.92,0,0,0,142,33.86a35.8,35.8,0,0,0,1.61-5.38,7.78,7.78,0,0,0,.23-2.41A8.38,8.38,0,0,1,144,23.3a25.58,25.58,0,0,0,.23-2.8,32.29,32.29,0,0,0,.52-5.09,17.86,17.86,0,0,0-1-6.78,2.14,2.14,0,0,0-1.92-1.44,48.06,48.06,0,0,0-5.08-.4c-.46,0-.93,0-1.4,0a23.36,23.36,0,0,1-3.55.38c-.72,0-1.22.58-2.08.75"/><path class="cls-2" d="M200.8,22.23a28.17,28.17,0,0,1-.68,6.47,32.53,32.53,0,0,1-1.92,4.88,3.76,3.76,0,0,1-2.11,2,8.84,8.84,0,0,0-2.44,1.4,4.64,4.64,0,0,1-2.21,1,18.55,18.55,0,0,1-5.19.63,2,2,0,0,0-.64,0,19.71,19.71,0,0,1-7.1-.26,3.9,3.9,0,0,1-1.61-.69,18.27,18.27,0,0,1-3.21-2.68,32.62,32.62,0,0,1-4.09-5.82,11.66,11.66,0,0,1-1.23-5,21.23,21.23,0,0,1,1-7.69,14.91,14.91,0,0,1,2-4.67,1,1,0,0,0,.14-.22c.74-2.22,2.37-3.82,3.85-5.52a10.09,10.09,0,0,1,3.69-2.7A12.26,12.26,0,0,1,185,1.86a19,19,0,0,1,7.39,1.85,11.67,11.67,0,0,1,4.82,5,31.19,31.19,0,0,1,3.05,7.57,23.12,23.12,0,0,1,.56,6m-6.24-8.12A21.84,21.84,0,0,0,194,9.69a8.55,8.55,0,0,0-2.82-4.62,3.21,3.21,0,0,0-2.3-1c-1.48.09-3,.22-4.44.37a3.84,3.84,0,0,0-1,.33c-1,.42-1.94.89-2.93,1.29a2.59,2.59,0,0,0-1.16,1,21.42,21.42,0,0,0-2.85,5.82,4.42,4.42,0,0,0-.21,1.51,23.19,23.19,0,0,1-.22,3.82,34,34,0,0,0-.33,7.12,21.58,21.58,0,0,0,1.34,7.12c.46,1.13.73,2.43,1.74,3.22a8.75,8.75,0,0,0,5.71,1.9,18.63,18.63,0,0,0,4.63-.85,4.7,4.7,0,0,0,3.19-2.35,14.28,14.28,0,0,0,1.27-3.6c.33-1.72.54-3.45.72-5.18a59,59,0,0,0,.37-7.4c0-1.36,0-2.73-.17-4.09"/><path class="cls-1" d="M77.81,27.1c0,1-.25,1.11-1.33,1a25.75,25.75,0,0,0-5.41,0,45.66,45.66,0,0,1-6.51.13,2.78,2.78,0,0,1-1.83-1.16,1.15,1.15,0,0,1,.06-1.42A17.06,17.06,0,0,0,65.17,21c.73-2.25,2.23-4,3.34-6,.48-.85.9-1.74,1.32-2.63a1.88,1.88,0,0,1,.7-.87.91.91,0,0,1,1.37.57,72.67,72.67,0,0,0,4.2,10.55c.57,1.19,1,2.43,1.55,3.6a1.89,1.89,0,0,1,.16.88M76,26.38c-1.15-2-1.83-4.16-2.81-6.16S71.83,16,71,13.76A10.47,10.47,0,0,0,69.45,16a25.42,25.42,0,0,1-1.91,3.75,6,6,0,0,0-.35.67,21,21,0,0,1-2.22,5,1.57,1.57,0,0,0-.41,1.15c3.78.2,7.55-.42,11.46-.19"/><path class="cls-1" d="M194.56,14.11c.16,1.36.13,2.73.17,4.09a59,59,0,0,1-.37,7.4c-.18,1.73-.39,3.46-.72,5.18a14.28,14.28,0,0,1-1.27,3.6,4.7,4.7,0,0,1-3.19,2.35,18.63,18.63,0,0,1-4.63.85,8.75,8.75,0,0,1-5.71-1.9c-1-.79-1.28-2.09-1.74-3.22a21.58,21.58,0,0,1-1.34-7.12,34,34,0,0,1,.33-7.12,23.19,23.19,0,0,0,.22-3.82,4.42,4.42,0,0,1,.21-1.51,21.42,21.42,0,0,1,2.85-5.82,2.59,2.59,0,0,1,1.16-1c1-.4,1.95-.87,2.93-1.29a3.84,3.84,0,0,1,1-.33c1.48-.15,3-.28,4.44-.37a3.21,3.21,0,0,1,2.3,1A8.51,8.51,0,0,1,194,9.69a21.84,21.84,0,0,1,.57,4.42M177.69,23a23.72,23.72,0,0,0,1.48,9.1,4.74,4.74,0,0,0,4.35,3.21,15,15,0,0,0,5.87-.73,3.72,3.72,0,0,0,2.7-3.21,71.25,71.25,0,0,0,1-8.63,68.63,68.63,0,0,0-.44-11.1,6.9,6.9,0,0,0-1-3.14c-1-1.52-2-3.06-4.24-2.58a1,1,0,0,1-.38,0c-2.41-.41-4.2,1.08-6.18,2a.69.69,0,0,0-.25.28,12.17,12.17,0,0,0-2.4,5.85c-.27,3.06-.56,6.12-.52,9"/></g></g></svg>