<svg xmlns="http://www.w3.org/2000/svg" xmlns:xlink="http://www.w3.org/1999/xlink" viewBox="0 0 150.6 114.8"><defs><style>.cls-1,.cls-4,.cls-5{fill:none;}.cls-2{clip-path:url(#clip-path);}.cls-3{fill:#fff;}.cls-4,.cls-5{stroke:#010101;stroke-linejoin:round;}.cls-4{stroke-linecap:round;stroke-width:3.75px;}.cls-5{stroke-width:3.39px;}.cls-6{fill:#be1e2d;}.cls-7{fill:#010101;}.cls-8{fill:#ed1c24;}.cls-9{fill:#b11116;}</style><clipPath id="clip-path" transform="translate(-7.02 -19.29)"><rect class="cls-1" width="167.21" height="141.44"/></clipPath></defs><title>Asset 3</title><g id="Layer_2" data-name="Layer 2"><g id="Layer_1-2" data-name="Layer 1"><g class="cls-2"><path class="cls-3" d="M83.4,49.15c-1.52-.23,26.83,11.59,44.55,16.7,11.91,3.43,23.26,7.93,27.81,10.87,0,0-1.88,4.4-17.72,10.56,0,0,6.5,7.16,5.48,20,0,0-27.21-19.81-48.33-19.81L97.75,80s6.33-1.5,9.26-5.21c0,0-26.8-14.87-23.61-25.61Z" transform="translate(-7.02 -19.29)"/><path class="cls-4" d="M83.4,49.15c-1.52-.23,26.83,11.59,44.55,16.7,11.91,3.43,23.26,7.93,27.81,10.87,0,0-1.88,4.4-17.72,10.56,0,0,6.5,7.16,5.48,20,0,0-27.21-19.81-48.33-19.81L97.75,80s6.33-1.5,9.26-5.21c0,0-26.8-14.87-23.61-25.61Z" transform="translate(-7.02 -19.29)"/><path d="M139.07,100.32c.12,0,.26-.32.23-.46s-6.58-5.94-10.92-6.45c-.12,0-.17.53-.06.56,5,1.53,10.7,6.36,10.75,6.35Z" transform="translate(-7.02 -19.29)"/><path d="M139.7,98.77c.11,0,.25-.33.22-.47s-6.58-5.93-10.92-6.45c-.11,0-.17.53-.06.57,5,1.53,10.7,6.35,10.76,6.35Z" transform="translate(-7.02 -19.29)"/><path class="cls-3" d="M38.88,79.61s-27.11,12-30.16,25.83c0,0,2.63-.42,18.64,1,0,0-4.85,11.48-.69,23.66,0,0,17.6-21.39,36.9-27.41l-4.22-6.56s-6.16.36-9.77-2.41c0,0-5.1-4.64-10.7-14.14Z" transform="translate(-7.02 -19.29)"/><path class="cls-5" d="M38.88,79.61s-27.11,12-30.16,25.83c0,0,2.63-.42,18.64,1,0,0-4.85,11.48-.69,23.66,0,0,17.6-21.39,36.9-27.41l-4.22-6.56s-6.16.36-9.77-2.41c0,0-5.1-4.64-10.7-14.14Z" transform="translate(-7.02 -19.29)"/><path d="M26,91.74a.62.62,0,0,0-.22-.58c-.07,0-8.46,5.31-11.49,10.85-.08.15.29.56.39.42C18.88,96.57,26,91.82,26,91.74Z" transform="translate(-7.02 -19.29)"/><polygon class="cls-3" points="32.31 82.51 29.52 85.59 30.58 87.92 34.76 87.81 40.09 82.23 38.05 79.22 32.31 82.51 32.31 82.51"/><polygon class="cls-3" points="123.33 17.06 126.38 19.34 127.4 21.43 126.72 23.47 125.92 29.15 123.73 28.37 121.99 29.71 120.14 25.2 117.47 19.65 116.04 16.89 123.33 17.06 123.33 17.06"/><path class="cls-6" d="M113.62,93.72l.44-.57.2-.26.59-.78c.43-.58.86-1.15,1.28-1.74,1.76-2.42,3.42-4.9,4.94-7.47A70.41,70.41,0,0,0,125.12,75l.1-.24,0-.1.2-.47c.12-.32.25-.64.37-1,.24-.64.48-1.28.7-1.93.46-1.35.88-2.71,1.23-4.09s.66-2.76.89-4.16c.06-.35.12-.7.17-1.05,0-.08,0-.28,0-.31l.06-.5c.08-.68.15-1.35.19-2,.1-1.4.14-2.81.1-4.21q0-1.1-.12-2.19c0-.33-.06-.67-.1-1,0,0,0-.32,0-.34s0-.21,0-.31a35,35,0,0,0-2.08-7.87c0-.08-.06-.15-.08-.22h0l-.18-.42c-.12-.27-.25-.55-.38-.82-.26-.55-.53-1.09-.82-1.62a34.32,34.32,0,0,0-2-3.22c-.2-.29-.4-.58-.61-.86l-.27-.36,0-.06,0,0c-.38-.48-.76-.95-1.16-1.4a37.66,37.66,0,0,0-2.64-2.72c-.48-.44-1-.88-1.48-1.3l-.71-.57-.23-.18-.23-.17a34.42,34.42,0,0,0-3.16-2.08,33.31,33.31,0,0,0-3.36-1.73l-.4-.17-.28-.12-.84-.32c-.57-.21-1.15-.41-1.72-.59a33.91,33.91,0,0,0-3.83-.93l-.65-.1-.32-.05-.82-.1c-.65-.07-1.31-.12-2-.15a32.5,32.5,0,0,0-4.07,0l-1.14.1-.49.05h-.09l-.08,0c-.65.08-1.29.19-1.93.31a38.38,38.38,0,0,0-4,1c-.67.21-1.34.44-2,.69l-.8.32-.28.11-.45.2a35.47,35.47,0,0,0-3.62,1.88c-.61.36-1.21.74-1.79,1.14-.27.19-.54.37-.8.57l-.39.29s-.23.18-.26.19A32.66,32.66,0,0,0,71,35.38l-.07.09-.13.18c-.09.12-.19.24-.27.37s-.36.49-.53.74c-.35.51-.68,1-1,1.54-.66,1.09-4,.46-3.87.24-.24-.23-.26-3.23-3.93-2.64-.23,0-.42-.2-.64-.29,0,0-3.58-1.13-4.18-1.24l-.69-.11-.46-.06c-.43-.05-.87-.08-1.3-.11a26.44,26.44,0,0,0-3.33,0c-.33,0-.65,0-1,.09l-.15,0-.35,0c-.51.07-1,.16-1.54.26-1,.21-2,.46-3.06.76-.81.24-1.63.51-2.43.8l-1.1.42-.36.15-.36.15c-1.33.58-2.63,1.21-3.9,1.92a37.83,37.83,0,0,0-3.66,2.34l-.56.42-.08.06-.09.07-.81.66c-.52.45-1,.91-1.53,1.39s-1.06,1.06-1.55,1.62c-.23.26-.45.52-.67.79l-.32.4-.06.08-.07.1a24.78,24.78,0,0,0-2.23,3.6c-.18.34-.35.69-.5,1l-.15.35L24,52c-.24.61-.47,1.23-.66,1.86a28.83,28.83,0,0,0-.94,4l0,.21a1.05,1.05,0,0,1,0,.13c0,.17,0,.33-.05.5,0,.33-.07.66-.1,1q-.07,1-.09,2a31.87,31.87,0,0,0,.22,4.15h0c0,.11,0,.21.05.32s0,.33.07.5.11.65.17,1c.13.65.27,1.3.44,2a33.22,33.22,0,0,0,1.33,4.1c0,.09.08.19.11.28a.59.59,0,0,0,0,.08l.21.5c.15.33.3.66.46,1,.31.65.63,1.3,1,1.93a40.85,40.85,0,0,0,2.39,3.83c.24.35.48.69.74,1l.32.43a.49.49,0,0,0,.08.1l.06.08c.45.57.91,1.14,1.39,1.68q1.48,1.73,3.12,3.3t3.39,3c.33.27.67.55,1,.81L39,92l.29.22c.59.45,1.2.89,1.81,1.31a78.4,78.4,0,0,0,7.94,4.86c2.74,1.47,5.55,2.81,8.4,4.07q1.11.5,2.22,1l.5.22.1,0,.11,0,1,.43q2.25.93,4.49,1.9c5.51,2.4,11.09,5.27,15.17,9.79A23.32,23.32,0,0,1,86.91,127c.27-.42.54-.84.82-1.26,6.76-10.23,15.32-19,23.07-28.51,1-1.16,1.9-2.33,2.82-3.51Z" transform="translate(-7.02 -19.29)"/><path d="M87.73,125.74c-.28.42-.55.84-.82,1.26a23.32,23.32,0,0,0-5.84-11.19C77,111.29,71.41,108.42,65.9,106q-2.24-1-4.49-1.9l-1-.43-.11,0-.1,0-.5-.22q-1.11-.47-2.22-1c-2.85-1.26-5.66-2.6-8.4-4.07a78.4,78.4,0,0,1-7.94-4.86c-.61-.42-1.22-.86-1.81-1.31L39,92l-.35-.27c-.34-.26-.68-.54-1-.81q-1.76-1.44-3.39-3t-3.12-3.3c-.48-.54-.94-1.11-1.39-1.68l-.06-.08a.49.49,0,0,1-.08-.1l-.32-.43c-.26-.34-.5-.68-.74-1a40.85,40.85,0,0,1-2.39-3.83c-.35-.63-.67-1.28-1-1.93-.16-.32-.31-.65-.46-1l-.21-.5a.59.59,0,0,1,0-.08c0-.09-.07-.19-.11-.28a33.22,33.22,0,0,1-1.33-4.1c-.17-.65-.31-1.3-.44-2-.06-.33-.12-.66-.17-1s-.05-.33-.07-.5,0-.21-.05-.32h0a31.87,31.87,0,0,1-.22-4.15q0-1,.09-2c0-.33.06-.66.1-1,0-.17,0-.33.05-.5a1.05,1.05,0,0,0,0-.13l0-.21a28.83,28.83,0,0,1,.94-4c.19-.63.42-1.25.66-1.86l.12-.28.15-.35c.15-.35.32-.7.5-1A24.78,24.78,0,0,1,27,46.69l.07-.1.06-.08.32-.4c.22-.27.44-.53.67-.79.49-.56,1-1.1,1.55-1.62s1-.94,1.53-1.39l.81-.66.09-.07.08-.06.56-.42a37.83,37.83,0,0,1,3.66-2.34c1.27-.71,2.57-1.34,3.9-1.92l.36-.15.36-.15,1.1-.42c.8-.29,1.62-.56,2.43-.8,1-.3,2-.55,3.06-.76.51-.1,1-.19,1.54-.26l.35,0,.15,0c.32,0,.64-.07,1-.09a26.44,26.44,0,0,1,3.33,0c.43,0,.87.06,1.3.11l.46.06.69.11c.6.11,4.15,1.22,4.18,1.24.22.09.42.22.64.29a9.28,9.28,0,0,1,3.93,2.64c-.11.22,2,3.14,2.58,2A17.33,17.33,0,0,1,69,38.3c.31-.52.64-1,1-1.54.17-.25.35-.5.53-.74s.18-.25.27-.37l.13-.18.07-.09a32.66,32.66,0,0,1,5.47-5.49s.24-.18.26-.19l.39-.29c.26-.2.53-.38.8-.57.58-.4,1.18-.78,1.79-1.14a35.47,35.47,0,0,1,3.62-1.88l.45-.2.28-.11.8-.32c.66-.25,1.33-.48,2-.69a38.38,38.38,0,0,1,4-1c.64-.12,1.28-.23,1.93-.31l.08,0h.09l.49-.05,1.14-.1a32.5,32.5,0,0,1,4.07,0c.65,0,1.31.08,2,.15l.82.1.32.05.65.1a33.91,33.91,0,0,1,3.83.93c.57.18,1.15.38,1.72.59l.84.32.28.12.4.17a33.31,33.31,0,0,1,3.36,1.73A34.42,34.42,0,0,1,116,29.32l.23.17.23.18.71.57c.5.42,1,.86,1.48,1.3a37.66,37.66,0,0,1,2.64,2.72c.4.45.78.92,1.16,1.4l0,0,0,.06.27.36c.21.28.41.57.61.86a34.32,34.32,0,0,1,2,3.22c.29.53.56,1.07.82,1.62.13.27.26.55.38.82l.18.42h0c0,.07,0,.14.08.22a35,35,0,0,1,2.08,7.87c0,.1,0,.21,0,.31s0,.3,0,.34c0,.33.07.67.1,1q.09,1.1.12,2.19c0,1.4,0,2.81-.1,4.21,0,.68-.11,1.35-.19,2l-.06.5s0,.23,0,.31c0,.35-.11.7-.17,1.05-.23,1.4-.54,2.79-.89,4.16S127,70,126.53,71.34c-.22.65-.46,1.29-.7,1.93-.12.31-.25.63-.37,1l-.2.47,0,.1-.1.24a70.41,70.41,0,0,1-4.05,7.87c-1.52,2.57-3.18,5-4.94,7.47-.42.59-.85,1.16-1.28,1.74l-.59.78-.2.26-.44.57c-.92,1.18-1.87,2.35-2.82,3.51-7.75,9.46-16.31,18.28-23.07,28.51Zm42-51.93c4-10.71,4.86-22.94,0-33.52A36,36,0,0,0,74.65,27,33.89,33.89,0,0,0,67,35.35c-9.39-8-23.5-5-33.3.81A31.3,31.3,0,0,0,21.46,48.75a30.62,30.62,0,0,0-2.91,16.67,37.86,37.86,0,0,0,6.11,16.86,53.47,53.47,0,0,0,13,13.49,88.21,88.21,0,0,0,16.13,9.28c1.41.65,2.83,1.27,4.26,1.88l2.3,1,.89.37.33.14.67.29a82.92,82.92,0,0,1,8.19,3.9c1,.56,2,1.16,2.92,1.8.45.3.89.62,1.33.94l.19.15.26.21c.23.17.45.35.67.54a26.2,26.2,0,0,1,2.34,2.25c.35.38.69.78,1,1.18l.11.13.21.27.5.7a22.91,22.91,0,0,1,1.64,2.79c.1.2.19.4.29.61s.09.2.13.31v0l0,.1c.21.52.38,1,.54,1.59a14.57,14.57,0,0,1,.35,1.45c.06.27.11.55.15.82,0,.07,0,.11,0,.14l0,.32a14.61,14.61,0,0,1-.06,3.17,2,2,0,0,0,1.94,2,2.89,2.89,0,0,0,1.38-.17,3.51,3.51,0,0,0,1.51-1.3,90.69,90.69,0,0,1,4.9-7.68c.86-1.22,1.74-2.41,2.64-3.6.06-.06.2-.25.21-.26l.33-.43.68-.87,1.48-1.85c3.83-4.72,7.88-9.25,11.83-13.87,7.84-9.17,15.39-18.85,19.68-30.24Z" transform="translate(-7.02 -19.29)"/><path class="cls-3" d="M26.39,55.8c.67-5.92,5.61-12.27,12.38-15.87s15.07-4.32,20.76-1.78c-6-.74-13,1.16-18.92,4.54A45.49,45.49,0,0,0,26.39,55.8Z" transform="translate(-7.02 -19.29)"/><path class="cls-3" d="M22.1,75.49c-.16.15-.13,1.22-.28,1.38-2.23,2.22-3.35,5.5,0,7.69,1.43.94,2.95.55,4.44,2a10.23,10.23,0,0,1,2.63,4.08c1.18,3.7.17,7.69.88,11.24.83,4.12,6.09,7.33,9.45,5.18-1.07-1.5-.35-.75-1.68-1.83a2.41,2.41,0,0,1-.49-3.68c1.4-1.78,3.59-2.75,5.42-3.62,2.23-1,4.45-.38,6.89-.84a61,61,0,0,1,13.1-.66,79.34,79.34,0,0,0,16.59-.9c5.79-1,12-.73,17.59-1.47A121,121,0,0,0,121,88.5c3.38-1.18,10.24-3.29,12.8-6,2.31-2.43,2.46-7.38,3.75-10.76,1.08-2.83.09-5.68-.31-8.63-.44-3.2-.4-6.37-1-9.6-.31-1.64-1.27-3.26-.73-4.72-4.28.15-7.8,4.73-12.18,6.4-5.71,2.19-10.79,2.65-16.68,3.36-6.08.74-12,2.07-18.13,2.77a39.72,39.72,0,0,1-7.32.18A35,35,0,0,0,77,61.43a44.83,44.83,0,0,0-9.23,1.41c-2.44.58-5-.39-7.4.13a81.19,81.19,0,0,1-10.58,1.67c-2.31.17-4.93,1.34-7.18,1.9A111.33,111.33,0,0,0,29.44,71a23.88,23.88,0,0,0-7.34,4.52Z" transform="translate(-7.02 -19.29)"/><path class="cls-7" d="M124.15,35.93a12,12,0,0,1,7,2.37c2.34,1.63,2.8,4,2.12,6.67-1.81,7.13-9.22,9.31-15.58,10.59-14.16,2.84-28.64,3.46-43,4.71C60.61,61.49,46.36,63,33,67.9a81.92,81.92,0,0,0-9.84,4.31,9.3,9.3,0,0,0-4.76,6.9C18,82,20,83.88,22.11,85.39s4.27,2.8,5.05,5.51c1.52,5.25-.74,12.14,3.95,16.2a9.31,9.31,0,0,0,8.29,1.81c2.7-.67,5-2.71,7.13-4.44,1-.83,2-1.68,2.95-2.52,1.27-1.1-.58-2.92-1.84-1.84-3.59,3.08-8.88,8.78-14.06,5.75-2.54-1.48-3.11-4.52-3.29-7.22s0-5.67-.79-8.39-2.63-4.54-4.94-6.13c-1.89-1.31-4.34-2.71-3.64-5.39A7.36,7.36,0,0,1,23.33,75a19.82,19.82,0,0,1,4.29-2.22A84.66,84.66,0,0,1,37.34,69c13.56-4.3,27.85-5.59,42-6.51,7.15-.47,14.31-.89,21.45-1.61a146.41,146.41,0,0,0,21-3.3c6.35-1.59,12.9-5.24,14.34-12.2.57-2.78.36-5.71-1.76-7.78a10.4,10.4,0,0,0-7-2.82,16.51,16.51,0,0,0-3.36.34.4.4,0,0,0,.11.78Z" transform="translate(-7.02 -19.29)"/><path class="cls-7" d="M39.89,107a2.08,2.08,0,0,1-1.75-1.81c-.19-1,.44-1.65,1.14-2.25a18.79,18.79,0,0,1,4.28-2.77,29,29,0,0,1,9.79-2.37c3.79-.36,7.61-.47,11.41-.58,7.22-.2,14.45-.47,21.66-1a181.86,181.86,0,0,0,29-4.09,62.3,62.3,0,0,0,12.2-4.1,21.44,21.44,0,0,0,8.17-6.1,15.14,15.14,0,0,0,2.27-4.18A24.81,24.81,0,0,0,139.17,73a18.09,18.09,0,0,0-.29-4.81c-.48-3.38-.67-6.75-1-10.14q-.58-5.65-1.3-11.29c-.22-1.79-.5-3.57-.72-5.36-.18-1.52-2.58-1.53-2.4,0,.47,3.82.81,7.66,1.33,11.48.25,1.89.49,3.78.76,5.66.12.91.25,1.82.37,2.73s.4,1.85.54,2.79c.46,3.18,1,6.71.4,9.88A15.48,15.48,0,0,1,134.45,80,19.43,19.43,0,0,1,127,85.72a59.71,59.71,0,0,1-12.2,4.15,176.24,176.24,0,0,1-29.38,4.19c-7.12.52-14.24.76-21.37.86a124.73,124.73,0,0,0-13.67.64,25.06,25.06,0,0,0-10,3.07c-2.57,1.54-6.14,4.88-3.63,8a2.62,2.62,0,0,0,3.23.93c.29-.14.12-.55-.15-.56Z" transform="translate(-7.02 -19.29)"/><path class="cls-8" d="M44.4,30.19a.14.14,0,0,0,0,.06h0l0-.06Z" transform="translate(-7.02 -19.29)"/><path class="cls-9" d="M23.23,36.93a0,0,0,0,0,0,0,0,0,0,0,0,0,0Z" transform="translate(-7.02 -19.29)"/><path d="M126.28,38.68c.59-.18,1.18-.31,1.77-.43s1.19-.21,1.79-.29,1.2-.15,1.8-.19a15.81,15.81,0,0,1,1.82-.06,17.56,17.56,0,0,1-1.77.43c-.59.12-1.19.21-1.79.29s-1.19.15-1.8.19a15.74,15.74,0,0,1-1.82.06Z" transform="translate(-7.02 -19.29)"/><path d="M126.08,39.66c.59-.18,1.18-.31,1.77-.43s1.19-.21,1.79-.29,1.2-.15,1.8-.19a15.81,15.81,0,0,1,1.82-.06,17.56,17.56,0,0,1-1.77.43c-.59.12-1.19.21-1.79.29s-1.2.15-1.8.19-1.21.07-1.82.06Z" transform="translate(-7.02 -19.29)"/><path d="M128.07,40.46a15.84,15.84,0,0,1,1.78-.42c.59-.12,1.19-.21,1.78-.3s1.2-.15,1.81-.19,1.2-.07,1.82,0q-.88.26-1.77.42c-.6.12-1.19.21-1.79.3s-1.2.14-1.81.19-1.2.07-1.82.05Z" transform="translate(-7.02 -19.29)"/><path d="M129.84,43.59a8.5,8.5,0,0,1,1.19-.35,12,12,0,0,1,1.2-.21,9.88,9.88,0,0,1,1.22-.11,7.25,7.25,0,0,1,1.23,0,8.79,8.79,0,0,1-1.18.35,12.23,12.23,0,0,1-1.21.21c-.4,0-.81.09-1.21.11a8.58,8.58,0,0,1-1.24,0Z" transform="translate(-7.02 -19.29)"/><path d="M130,44.73a8.38,8.38,0,0,1,1.18-.35q.6-.14,1.2-.21a10.05,10.05,0,0,1,1.22-.11,8.42,8.42,0,0,1,1.23,0,8.38,8.38,0,0,1-1.18.35q-.6.14-1.2.21a10.05,10.05,0,0,1-1.22.11,8.42,8.42,0,0,1-1.23,0Z" transform="translate(-7.02 -19.29)"/><path d="M129.3,47.16a7.34,7.34,0,0,1,1.19-.35c.4-.09.8-.16,1.2-.22s.81-.09,1.22-.11a7.27,7.27,0,0,1,1.23,0,8.79,8.79,0,0,1-1.18.35,12.23,12.23,0,0,1-1.21.21c-.4,0-.8.09-1.21.11a8.58,8.58,0,0,1-1.24,0Z" transform="translate(-7.02 -19.29)"/><path d="M125.53,37.61c.59-.18,1.18-.31,1.77-.43s1.19-.21,1.79-.29,1.2-.15,1.8-.19a15.81,15.81,0,0,1,1.82-.06,17.56,17.56,0,0,1-1.77.43c-.59.12-1.19.21-1.79.29s-1.2.15-1.8.19-1.21.07-1.82.06Z" transform="translate(-7.02 -19.29)"/><path d="M128.19,41.69a12.61,12.61,0,0,1,1.58-.4c.52-.11,1.06-.2,1.59-.27s1.07-.13,1.61-.16a14.6,14.6,0,0,1,1.62,0,11,11,0,0,1-1.57.4c-.53.11-1.06.2-1.6.27s-1.07.13-1.6.16a14.72,14.72,0,0,1-1.63,0Z" transform="translate(-7.02 -19.29)"/><path d="M129.09,42.52a8.79,8.79,0,0,1,1.18-.35,12.23,12.23,0,0,1,1.21-.21c.4-.06.81-.1,1.21-.12a7.37,7.37,0,0,1,1.24,0,7.3,7.3,0,0,1-1.19.34,12.07,12.07,0,0,1-1.2.22c-.4,0-.81.09-1.21.11a8.58,8.58,0,0,1-1.24,0Z" transform="translate(-7.02 -19.29)"/><path d="M129,46a8.38,8.38,0,0,1,1.18-.35q.6-.14,1.2-.21a10.05,10.05,0,0,1,1.22-.11,7.22,7.22,0,0,1,1.23,0,8.38,8.38,0,0,1-1.18.35q-.6.14-1.2.21c-.41,0-.81.09-1.22.11A8.42,8.42,0,0,1,129,46Z" transform="translate(-7.02 -19.29)"/><path d="M37.27,102.43c1-.29,2-.52,3-.72.5-.11,1-.2,1.52-.29l1.52-.25,1.53-.21c.52-.06,1-.13,1.54-.17,1-.1,2.06-.18,3.1-.19-1,.29-2,.52-3,.72-.5.11-1,.19-1.52.29l-1.53.25-1.53.21-1.53.17c-1,.1-2.06.18-3.1.19Z" transform="translate(-7.02 -19.29)"/><path d="M36.13,103.57c1.12-.3,2.24-.53,3.37-.74.57-.12,1.13-.2,1.7-.3l1.7-.26,1.71-.22c.57-.06,1.14-.13,1.71-.18,1.15-.11,2.29-.19,3.45-.21-1.12.3-2.24.54-3.37.75-.57.11-1.13.19-1.7.29L43,103l-1.71.22c-.57.06-1.14.13-1.71.18-1.15.11-2.29.19-3.45.21Z" transform="translate(-7.02 -19.29)"/><path d="M37.4,104.35c.59-.18,1.18-.31,1.77-.43s1.19-.21,1.79-.29,1.2-.15,1.8-.19a15.91,15.91,0,0,1,1.83-.06c-.59.18-1.18.31-1.78.43s-1.19.21-1.78.29-1.2.15-1.81.19a15.74,15.74,0,0,1-1.82.06Z" transform="translate(-7.02 -19.29)"/><path d="M40,101.08a17.52,17.52,0,0,1,1.77-.42c.59-.12,1.19-.21,1.79-.3s1.19-.14,1.8-.19,1.21-.07,1.82,0a16.21,16.21,0,0,1-1.77.42c-.6.12-1.19.21-1.79.3s-1.2.14-1.8.19-1.21.07-1.82,0Z" transform="translate(-7.02 -19.29)"/><path d="M36.44,105.25a15.06,15.06,0,0,1,1.57-.4c.53-.11,1.07-.19,1.6-.27s1.07-.12,1.61-.16a14.51,14.51,0,0,1,1.62,0,12.91,12.91,0,0,1-1.57.4c-.53.11-1.06.19-1.6.27s-1.07.13-1.61.16a12.45,12.45,0,0,1-1.62,0Z" transform="translate(-7.02 -19.29)"/><path d="M30.8,75a1.19,1.19,0,0,1,1.08-1.57l2.48-.46a1.64,1.64,0,0,1,1.75.72L44,84.85l3.45-13.29a1.64,1.64,0,0,1,1.38-1.29l2.47-.45A1.2,1.2,0,0,1,52.9,70.9l3.51,19.18a1.18,1.18,0,0,1-1.08,1.57l-2.92.54a1.2,1.2,0,0,1-1.57-1.09l-1.4-7.61L47.56,92a1.64,1.64,0,0,1-1.37,1.32L45,93.54a1.63,1.63,0,0,1-1.76-.74L38.5,85.53l1.39,7.58a1.18,1.18,0,0,1-1.08,1.57l-2.92.54a1.2,1.2,0,0,1-1.57-1.09L30.8,75Z" transform="translate(-7.02 -19.29)"/><path d="M66.92,72.81a6,6,0,1,0,4.36,1.41,6,6,0,0,0-4.36-1.41Zm1.49,17.57a11.71,11.71,0,0,1-8.51-2.71,11.47,11.47,0,0,1-4.1-7.9,11.67,11.67,0,1,1,20.54,6.51,11.72,11.72,0,0,1-7.93,4.1Z" transform="translate(-7.02 -19.29)"/><path d="M79.26,68a1.2,1.2,0,0,1,1.22-1.47L83,66.33a1.65,1.65,0,0,1,1.68.88l6.86,11.87,4.64-12.92A1.63,1.63,0,0,1,97.66,65l2.51-.22A1.18,1.18,0,0,1,101.63,66l1.77,19.41a1.2,1.2,0,0,1-1.23,1.47l-3,.27a1.2,1.2,0,0,1-1.47-1.22l-.7-7.71L94.4,86.53a1.61,1.61,0,0,1-1.49,1.19l-1.19.11a1.62,1.62,0,0,1-1.68-.9L86,79.26l.7,7.67a1.2,1.2,0,0,1-1.22,1.47l-3,.27A1.2,1.2,0,0,1,81,87.45L79.26,68Z" transform="translate(-7.02 -19.29)"/><path d="M105.33,62.92a3.08,3.08,0,0,1,3.47,2.66,4.19,4.19,0,0,1-.52,2.46c-.12.28-.52.91-1,1.67A22.38,22.38,0,0,1,105.56,72c-.19.18-.63.06-1.3-.43-.07,0-.11-.11-.14-.13-.45-.43-.11-.84.28-1.34l.88-1.36a2.76,2.76,0,0,1-2.64-2.31,3,3,0,0,1,.64-2.29,3.08,3.08,0,0,1,2-1.18Z" transform="translate(-7.02 -19.29)"/><path d="M122.25,78.77a1.22,1.22,0,0,0,.5-1,1,1,0,0,0-.32-.82l-.38-.27a7.38,7.38,0,0,0-2-.68c-.55-.11-1.22-.22-2-.31-3.31-.46-6.27-1.52-7.55-3.12a6,6,0,0,1-1.15-2.78,6.2,6.2,0,0,1,.1-2.5,6.76,6.76,0,0,1,3-4,11.23,11.23,0,0,1,5.53-1.79,15.51,15.51,0,0,1,4.57.35,12.48,12.48,0,0,1,3,1.2,1.13,1.13,0,0,1,.42,1.84l-1.46,2.35a1.24,1.24,0,0,1-1.83.52,8.71,8.71,0,0,0-4.36-1,4.77,4.77,0,0,0-2.27.67,1.77,1.77,0,0,0-.75.92c-.2.62.1,1,.66,1.31a7.92,7.92,0,0,0,2.35.59c4.74.61,7.33,1.67,8.54,3a6.48,6.48,0,0,1,1.49,5.13,6.07,6.07,0,0,1-2.09,4.12,10.2,10.2,0,0,1-6.28,2.26l-.54,0c-.21,0-.39,0-.6,0a17.31,17.31,0,0,1-8.12-1.76,1.14,1.14,0,0,1-.49-1.86L112,78.66a1.26,1.26,0,0,1,1.86-.46,10.34,10.34,0,0,0,4.57,1.25,6.4,6.4,0,0,0,3.8-.68Z" transform="translate(-7.02 -19.29)"/><path class="cls-3" d="M70.22,42.55c2.26-7.61,9.8-13,17.2-15.77s20.64-1.43,26.59,4.1c-12.4-2.43-18.41-1.54-24.85,1.17s-9.44,3.55-18.94,10.5Z" transform="translate(-7.02 -19.29)"/></g></g></g></svg>